<?xml version="1.0" standalone="no"?>
<!DOCTYPE svg PUBLIC "-//W3C//DTD SVG 20010904//EN"
 "http://www.w3.org/TR/2001/REC-SVG-20010904/DTD/svg10.dtd">
<svg version="1.0" xmlns="http://www.w3.org/2000/svg"
 width="500.000000pt" height="500.000000pt" viewBox="0 0 500.000000 500.000000"
 preserveAspectRatio="xMidYMid meet">
<metadata>
Created by potrace 1.14, written by Peter Selinger 2001-2017
</metadata>
<g transform="translate(0.000000,500.000000) scale(0.100000,-0.100000)"
fill="#000000" stroke="none">
<path d="M2440 4985 c0 -6 -19 -11 -42 -12 -24 0 -61 -4 -83 -8 -22 -4 -55 -8
-74 -9 -19 -1 -36 -7 -38 -13 -2 -5 -15 -8 -28 -5 -14 2 -25 0 -25 -4 0 -5
-10 -10 -23 -11 -33 -3 -51 -8 -64 -16 -7 -5 -13 -6 -13 -2 0 3 -13 -1 -29 -9
-16 -9 -31 -12 -35 -9 -3 4 -6 1 -6 -6 0 -8 -7 -11 -15 -7 -9 3 -18 0 -21 -8
-3 -7 -10 -13 -17 -13 -17 -1 -41 -7 -47 -13 -3 -3 -29 -16 -57 -30 -29 -14
-53 -28 -53 -32 0 -5 -6 -8 -14 -8 -22 0 -97 -46 -89 -54 5 -4 4 -6 -2 -5 -15
4 -55 -11 -55 -22 0 -5 -7 -9 -15 -9 -9 0 -18 -7 -21 -15 -4 -8 -11 -15 -16
-15 -17 0 -58 -37 -50 -45 4 -5 1 -5 -5 -1 -8 4 -22 -3 -35 -17 -13 -13 -33
-29 -45 -36 -13 -6 -23 -18 -23 -26 0 -8 -3 -14 -8 -12 -10 3 -221 -212 -225
-230 -2 -9 -19 -31 -54 -71 -13 -14 -23 -29 -23 -34 0 -5 -9 -18 -20 -30 -10
-11 -26 -36 -35 -54 -9 -19 -20 -34 -26 -34 -6 0 -8 -4 -4 -9 3 -5 1 -12 -5
-16 -5 -3 -10 -15 -10 -26 0 -11 -4 -17 -10 -14 -5 3 -10 1 -10 -4 0 -6 -13
-38 -29 -70 -16 -33 -26 -62 -23 -65 3 -4 0 -6 -6 -6 -6 0 -13 -13 -17 -30 -4
-16 -11 -30 -16 -30 -6 0 -8 -3 -5 -8 5 -8 -22 -70 -40 -93 -12 -15 -23 -55
-28 -108 -2 -18 -10 -37 -17 -42 -8 -5 -9 -9 -4 -9 6 0 3 -5 -5 -10 -11 -7
-11 -10 -2 -10 10 0 10 -5 2 -20 -6 -11 -10 -26 -9 -33 3 -18 -33 -177 -41
-177 -3 0 -6 -21 -5 -46 0 -25 -3 -48 -7 -50 -4 -2 -5 -13 -2 -24 2 -11 6 -29
8 -40 3 -11 2 -20 -2 -20 -9 0 -10 -63 -2 -70 4 -3 11 -16 15 -29 6 -18 4 -22
-6 -15 -12 6 -12 5 0 -9 10 -13 10 -17 1 -17 -10 0 -10 -3 0 -15 7 -8 8 -15 3
-15 -5 0 -10 -7 -10 -15 0 -8 5 -15 11 -15 5 0 1 -7 -10 -15 -10 -8 -14 -15
-8 -15 9 0 12 -42 4 -60 -1 -3 -1 -9 0 -15 5 -26 6 -65 0 -65 -8 0 -3 -67 6
-82 4 -6 3 -8 -4 -5 -6 5 -8 0 -5 -12 3 -10 -2 -32 -10 -47 -19 -37 -19 -154
0 -154 8 0 12 -10 11 -25 -1 -14 -6 -25 -11 -25 -4 0 -5 -19 -1 -42 4 -24 8
-52 10 -63 1 -11 3 -20 4 -20 2 0 6 -13 22 -77 7 -27 16 -48 20 -48 5 0 8 -7
8 -15 0 -8 12 -40 27 -72 15 -32 27 -60 28 -63 2 -16 31 -70 37 -70 5 0 8 -7
8 -15 0 -16 39 -77 53 -83 4 -2 7 -8 7 -14 0 -6 10 -20 22 -32 13 -12 24 -29
26 -39 2 -10 12 -34 22 -52 10 -18 21 -47 23 -64 3 -16 15 -44 27 -61 12 -16
19 -30 16 -30 -3 0 10 -16 29 -35 19 -19 35 -39 35 -44 0 -5 13 -22 29 -38 17
-18 32 -45 36 -69 3 -21 9 -54 12 -71 3 -18 9 -33 14 -33 5 0 6 -7 3 -15 -4
-9 0 -15 7 -15 11 0 11 -3 -1 -10 -10 -7 -11 -12 -4 -17 16 -12 23 -38 14 -54
-5 -8 -4 -19 2 -26 7 -9 7 -13 -1 -13 -12 0 -5 -11 30 -48 22 -23 34 -62 18
-62 -8 0 -8 -4 1 -15 7 -9 10 -18 7 -21 -7 -7 31 -86 45 -95 5 -3 9 -9 9 -13
-3 -20 0 -26 9 -21 6 4 9 3 8 -2 -3 -14 13 -57 30 -76 8 -9 12 -20 9 -24 -4
-3 5 -15 20 -25 16 -10 22 -18 15 -18 -9 0 -7 -9 7 -29 12 -16 21 -34 21 -40
0 -5 6 -14 13 -18 14 -9 35 -41 43 -66 4 -9 10 -17 15 -17 5 0 9 -5 9 -12 0
-6 12 -27 27 -47 15 -20 28 -38 28 -40 0 -9 71 -78 76 -74 4 1 9 -3 12 -11 3
-8 18 -17 34 -20 27 -6 29 -9 27 -59 -1 -77 6 -86 66 -81 35 3 50 1 50 -7 0
-7 3 -10 6 -7 3 4 19 2 35 -2 16 -5 29 -5 29 -1 0 3 12 6 28 5 15 0 30 4 34
10 6 8 8 8 8 0 0 -12 29 -12 48 0 7 4 12 2 12 -4 0 -7 7 -10 15 -7 8 4 27 -7
45 -24 16 -17 34 -28 40 -24 5 3 10 2 10 -3 0 -6 23 -15 50 -22 28 -7 53 -16
56 -21 3 -5 14 -9 25 -9 10 0 19 -4 19 -10 0 -6 9 -6 25 0 14 5 25 7 25 3 0
-3 9 2 19 11 20 18 26 18 146 13 82 -4 208 15 232 35 14 11 16 11 8 -2 -7 -12
-6 -13 6 -4 16 13 66 28 92 27 9 0 17 4 17 8 0 5 3 8 8 7 4 -1 21 4 37 11 17
7 41 15 54 17 13 3 40 12 60 21 20 9 41 17 46 18 25 3 55 17 55 26 0 6 8 9 18
7 9 -1 33 7 53 20 20 12 41 22 48 22 6 0 11 5 11 11 0 6 6 9 14 6 13 -5 53 38
58 64 5 20 31 48 40 43 4 -3 8 -1 8 4 0 5 13 15 30 22 16 7 28 16 25 20 -3 5
1 11 7 13 9 4 9 6 1 6 -23 2 68 141 92 141 10 0 54 48 49 53 -10 9 35 19 56
12 12 -4 27 -1 35 5 17 14 58 -12 74 -48 6 -12 17 -22 25 -22 8 0 16 -6 19
-12 3 -10 8 -9 22 2 14 11 17 11 11 2 -7 -11 -5 -12 10 -4 33 19 70 57 69 72
0 20 44 66 61 62 8 -2 14 4 14 13 0 8 5 15 10 15 6 0 10 6 10 13 0 7 8 20 18
29 38 37 46 55 44 108 -2 43 14 96 41 134 14 19 20 42 18 63 -1 18 1 33 6 33
5 0 10 11 11 25 1 14 2 36 3 50 1 13 14 38 30 55 16 16 26 30 23 30 -4 0 6 13
22 28 17 16 30 40 32 57 1 16 8 32 14 36 8 5 13 46 16 121 3 137 3 92 3 348
-1 118 0 224 0 235 2 113 -3 320 -8 329 -4 6 -8 22 -8 36 0 14 -5 32 -10 40
-12 20 -12 43 0 52 6 5 5 8 -2 8 -9 0 -11 11 -7 38 3 20 8 40 11 45 2 4 0 7
-6 7 -6 0 -8 7 -5 15 4 8 2 21 -3 28 -5 6 -9 26 -8 44 2 24 -2 33 -17 36 -11
3 -17 10 -14 15 3 6 -1 13 -10 16 -15 6 -15 9 -2 24 7 9 20 29 27 44 8 15 19
24 24 21 6 -4 8 0 4 10 -4 10 -2 17 5 17 7 0 7 4 -1 13 -6 8 -7 17 -3 21 9 10
10 66 1 66 -12 0 -2 39 14 54 15 15 16 48 2 80 -4 10 -4 21 2 25 13 9 15 311
1 311 -7 0 -7 4 -1 13 15 19 14 195 -1 210 -11 10 -11 15 -1 32 8 12 13 48 12
91 -2 63 -5 75 -28 98 -14 14 -41 52 -58 83 -43 77 -89 144 -138 198 -7 7 -13
17 -13 22 0 4 -14 23 -31 41 -16 17 -26 32 -22 32 4 0 -7 9 -25 20 -18 11 -30
25 -27 30 3 6 3 10 -2 10 -4 0 -51 40 -103 90 -52 49 -96 88 -98 86 -2 -2 -14
6 -26 18 -64 58 -148 124 -153 119 -7 -6 -72 29 -76 42 -4 8 -15 15 -26 15
-11 0 -24 7 -28 15 -5 8 -21 16 -36 17 -16 1 -33 8 -39 15 -6 7 -19 13 -29 13
-11 0 -19 4 -19 9 0 5 -22 7 -49 5 -35 -3 -51 0 -61 11 -7 8 -20 15 -29 15
-17 0 -61 35 -61 48 0 4 -12 9 -27 10 -15 1 -29 6 -32 11 -3 4 -18 7 -33 7
-16 -1 -28 2 -28 7 0 4 -4 6 -9 3 -5 -4 -22 -1 -38 5 -15 6 -39 12 -53 15 -14
2 -35 5 -48 8 -12 3 -48 6 -78 7 -30 1 -57 6 -60 11 -3 4 -14 4 -24 -2 -13 -7
-21 -7 -25 0 -8 13 -172 10 -199 -3 -13 -6 -21 -5 -27 4 -5 8 -9 9 -9 4z"/>
</g>
</svg>
